<svg xmlns="http://www.w3.org/2000/svg" version="1.1" xmlns:xlink="http://www.w3.org/1999/xlink" xmlns:svgjs="http://svgjs.dev/svgjs" width="1440" height="500" preserveAspectRatio="none" viewBox="0 0 1440 500"><g mask="url(&quot;#SvgjsMask18767&quot;)" fill="none"><rect width="116.2" height="116.2" clip-path="url(&quot;#SvgjsClipPath18768&quot;)" x="956.61" y="112.33" fill="url(&quot;#SvgjsPattern18769&quot;)" transform="rotate(198.98, 1014.71, 170.43)"></rect><circle r="60.259228039575376" cx="633.46" cy="438.05" stroke="#037b0b" stroke-width="1.34" stroke-dasharray="3, 2"></circle><rect width="336" height="336" clip-path="url(&quot;#SvgjsClipPath18770&quot;)" x="-151.25" y="60.8" fill="url(&quot;#SvgjsPattern18771&quot;)" transform="rotate(232.62, 16.75, 228.8)"></rect><path d="M1420.22 152.12L1432.32 147.92 1439.07 158.81 1451.17 154.61 1457.92 165.49 1470.02 161.29 1476.77 172.17M1417.55 159.66L1429.65 155.47 1436.4 166.35 1448.5 162.15 1455.25 173.03 1467.35 168.83 1474.1 179.71" stroke="#d3b714" stroke-width="1.89" stroke-dasharray="3, 2"></path><rect width="113.8" height="113.8" clip-path="url(&quot;#SvgjsClipPath18772&quot;)" x="187.67" y="-8.96" fill="url(&quot;#SvgjsPattern18773&quot;)" transform="rotate(124.58, 244.57, 47.94)"></rect><path d="M848.06 421.91 L734.52 538.07L730.1840860792236 418.88408607922355z" stroke="#037b0b" stroke-width="2.68" stroke-dasharray="3, 3"></path><rect width="135.12" height="135.12" clip-path="url(&quot;#SvgjsClipPath18774&quot;)" x="1175.47" y="263.52" fill="url(&quot;#SvgjsPattern18775&quot;)" transform="rotate(61.61, 1243.03, 331.08)"></rect><rect width="283.36" height="283.36" clip-path="url(&quot;#SvgjsClipPath18776&quot;)" x="862.07" y="199.57" fill="url(&quot;#SvgjsPattern18777&quot;)" transform="rotate(104.32, 1003.75, 341.25)"></rect><path d="M1193.57 184.7 L1324.12 245.68L1327.0305341330209 147.00446586697893z" stroke="#037b0b" stroke-width="1"></path><rect width="306.28" height="306.28" clip-path="url(&quot;#SvgjsClipPath18778&quot;)" x="-37.11" y="-67.55" fill="url(&quot;#SvgjsPattern18779&quot;)" transform="rotate(71.67, 116.03, 85.59)"></rect><rect width="119" height="119" clip-path="url(&quot;#SvgjsClipPath18780&quot;)" x="335.21" y="36.32" fill="url(&quot;#SvgjsPattern18781&quot;)" transform="rotate(258.6, 394.71, 95.82)"></rect><circle r="61.72659227992349" cx="1304.84" cy="328.15" stroke="#e73635" stroke-width="2.94" stroke-dasharray="3, 2"></circle><rect width="118.4" height="118.4" clip-path="url(&quot;#SvgjsClipPath18782&quot;)" x="365.98" y="201.7" fill="url(&quot;#SvgjsPattern18783&quot;)" transform="rotate(321.66, 425.18, 260.9)"></rect></g><defs><mask id="SvgjsMask18767"><rect width="1440" height="500" fill="#ffffff"></rect></mask><pattern x="0" y="0" width="116.2" height="11.62" patternUnits="userSpaceOnUse" id="SvgjsPattern18769"><rect width="116.2" height="5.81" x="0" y="0" fill="#d3b714"></rect><rect width="116.2" height="5.81" x="0" y="5.81" fill="rgba(0, 0, 0, 0)"></rect></pattern><clipPath id="SvgjsClipPath18768"><circle r="29.05" cx="1014.71" cy="170.43"></circle></clipPath><pattern x="0" y="0" width="6" height="6" patternUnits="userSpaceOnUse" id="SvgjsPattern18771"><path d="M0 6L3 0L6 6" stroke="#d3b714" fill="none"></path></pattern><clipPath id="SvgjsClipPath18770"><circle r="84" cx="16.75" cy="228.8"></circle></clipPath><pattern x="0" y="0" width="113.8" height="11.38" patternUnits="userSpaceOnUse" id="SvgjsPattern18773"><rect width="113.8" height="5.69" x="0" y="0" fill="#d3b714"></rect><rect width="113.8" height="5.69" x="0" y="5.69" fill="rgba(0, 0, 0, 0)"></rect></pattern><clipPath id="SvgjsClipPath18772"><circle r="28.45" cx="244.57" cy="47.94"></circle></clipPath><pattern x="0" y="0" width="11.26" height="11.26" patternUnits="userSpaceOnUse" id="SvgjsPattern18775"><path d="M5.63 1L5.63 10.26M1 5.63L10.26 5.63" stroke="#e73635" fill="none" stroke-width="1.98"></path></pattern><clipPath id="SvgjsClipPath18774"><circle r="33.78" cx="1243.03" cy="331.08"></circle></clipPath><pattern x="0" y="0" width="12.88" height="12.88" patternUnits="userSpaceOnUse" id="SvgjsPattern18777"><path d="M6.44 1L6.44 11.88M1 6.44L11.88 6.44" stroke="#d3b714" fill="none" stroke-width="2.96"></path></pattern><clipPath id="SvgjsClipPath18776"><circle r="70.84" cx="1003.75" cy="341.25"></circle></clipPath><pattern x="0" y="0" width="11.78" height="11.78" patternUnits="userSpaceOnUse" id="SvgjsPattern18779"><path d="M5.89 1L5.89 10.78M1 5.89L10.78 5.89" stroke="#e73635" fill="none" stroke-width="4.66"></path></pattern><clipPath id="SvgjsClipPath18778"><circle r="76.57" cx="116.03" cy="85.59"></circle></clipPath><pattern x="0" y="0" width="11.9" height="11.9" patternUnits="userSpaceOnUse" id="SvgjsPattern18781"><path d="M0 11.9L5.95 0L11.9 11.9" stroke="#037b0b" fill="none"></path></pattern><clipPath id="SvgjsClipPath18780"><circle r="29.75" cx="394.71" cy="95.82"></circle></clipPath><pattern x="0" y="0" width="7.4" height="7.4" patternUnits="userSpaceOnUse" id="SvgjsPattern18783"><path d="M3.7 1L3.7 6.4M1 3.7L6.4 3.7" stroke="#e73635" fill="none" stroke-width="1"></path></pattern><clipPath id="SvgjsClipPath18782"><circle r="29.6" cx="425.18" cy="260.9"></circle></clipPath></defs></svg>