<svg xmlns="http://www.w3.org/2000/svg" version="1.1" xmlns:xlink="http://www.w3.org/1999/xlink" xmlns:svgjs="http://svgjs.dev/svgjs" width="1000" height="300" preserveAspectRatio="none" viewBox="0 0 1000 300"><g mask="url(&quot;#SvgjsMask25453&quot;)" fill="none"><path d="M319.21 194.97L325.14 183.62 337.51 186.92 343.44 175.57 355.82 178.86 361.75 167.51 374.12 170.81M322.43 202.3L328.36 190.95 340.73 194.24 346.66 182.89 359.04 186.19 364.97 174.84 377.35 178.13" stroke="#e73635" stroke-width="2.23"></path><path d="M166.98 197.66a5.6 5.6 0 1 0-4.55-10.23 5.6 5.6 0 1 0 4.55 10.23zM160.48 183.04a5.6 5.6 0 1 0-4.55-10.23 5.6 5.6 0 1 0 4.55 10.23zM153.98 168.42a5.6 5.6 0 1 0-4.55-10.23 5.6 5.6 0 1 0 4.55 10.23zM147.48 153.8a5.6 5.6 0 1 0-4.55-10.23 5.6 5.6 0 1 0 4.55 10.23zM194.6 220.4a5.6 5.6 0 1 0-4.55-10.23 5.6 5.6 0 1 0 4.55 10.23zM188.1 205.78a5.6 5.6 0 1 0-4.55-10.23 5.6 5.6 0 1 0 4.55 10.23zM181.6 191.16a5.6 5.6 0 1 0-4.55-10.23 5.6 5.6 0 1 0 4.55 10.23zM175.1 176.54a5.6 5.6 0 1 0-4.55-10.23 5.6 5.6 0 1 0 4.55 10.23z" stroke="#d3b714" stroke-width="1.49" stroke-dasharray="3, 2"></path><rect width="60" height="60" clip-path="url(&quot;#SvgjsClipPath25454&quot;)" x="867" y="-10.73" fill="url(&quot;#SvgjsPattern25455&quot;)" transform="rotate(349.78, 897, 19.27)"></rect><rect width="92.2" height="92.2" clip-path="url(&quot;#SvgjsClipPath25456&quot;)" x="905.96" y="215.06" fill="url(&quot;#SvgjsPattern25457&quot;)" transform="rotate(354.02, 952.06, 261.16)"></rect><path d="M639.56 109.91 L615.8299999999999 125.6L640.708427788835 130.76842778883506z" fill="#e73635"></path><path d="M958.47 144.81 L1004.55 166.25L962.7986997292716 174.2413002707284z" fill="#d3b714"></path><rect width="132.48" height="132.48" clip-path="url(&quot;#SvgjsClipPath25458&quot;)" x="818.28" y="131.36" fill="url(&quot;#SvgjsPattern25459&quot;)" transform="rotate(35.14, 884.52, 197.6)"></rect><path d="M943.15 269.03a5.6 5.6 0 1 0 4.53-10.24 5.6 5.6 0 1 0-4.53 10.24zM949.62 254.4a5.6 5.6 0 1 0 4.52-10.25 5.6 5.6 0 1 0-4.52 10.25zM956.08 239.76a5.6 5.6 0 1 0 4.52-10.24 5.6 5.6 0 1 0-4.52 10.24zM962.54 225.12a5.6 5.6 0 1 0 4.53-10.24 5.6 5.6 0 1 0-4.53 10.24zM944.86 304.77a5.6 5.6 0 1 0 4.52-10.25 5.6 5.6 0 1 0-4.52 10.25zM951.32 290.13a5.6 5.6 0 1 0 4.53-10.24 5.6 5.6 0 1 0-4.53 10.24zM957.79 275.5a5.6 5.6 0 1 0 4.52-10.25 5.6 5.6 0 1 0-4.52 10.25zM964.25 260.86a5.6 5.6 0 1 0 4.53-10.24 5.6 5.6 0 1 0-4.53 10.24z" stroke="#e73635" stroke-width="1" stroke-dasharray="3, 2"></path><rect width="128.4" height="128.4" clip-path="url(&quot;#SvgjsClipPath25460&quot;)" x="177.26" y="38.5" fill="url(&quot;#SvgjsPattern25461&quot;)" transform="rotate(259.02, 241.46, 102.7)"></rect><path d="M417.69 86.36 L438.53000000000003 83.93L440.9785627898483 98.01356278984831z" fill="#037b0b"></path><path d="M333.59 171.39L322.49 177.77 313.83 168.34 302.73 174.72 294.06 165.29 282.96 171.68 274.29 162.25M334.81 163.48L323.71 169.86 315.05 160.43 303.94 166.82 295.28 157.39 284.18 163.77 275.51 154.34M336.03 155.57L324.93 161.96 316.26 152.53 305.16 158.91 296.5 149.48 285.4 155.86 276.73 146.43" stroke="#d3b714" stroke-width="1.13" stroke-dasharray="3, 2"></path><rect width="60" height="60" clip-path="url(&quot;#SvgjsClipPath25462&quot;)" x="517.77" y="67.78" fill="url(&quot;#SvgjsPattern25463&quot;)" transform="rotate(133.37, 547.77, 97.78)"></rect><path d="M882.96 112.24L895.06 116.44 893.61 129.16 905.71 133.36 904.27 146.09 916.37 150.29 914.93 163.01" stroke="#d3b714" stroke-width="1.16" stroke-dasharray="3, 3"></path><path d="M115.51 284.04L116.1 271.25 128.72 269.03 129.31 256.23 141.92 254.01 142.52 241.21 155.13 238.99M121.52 289.33L122.11 276.53 134.72 274.31 135.32 261.52 147.93 259.29 148.53 246.5 161.14 244.27M127.52 294.61L128.12 281.82 140.73 279.59 141.33 266.8 153.94 264.57 154.54 251.78 167.15 249.55" stroke="#037b0b" stroke-width="1" stroke-dasharray="3, 2"></path><rect width="156" height="156" clip-path="url(&quot;#SvgjsClipPath25464&quot;)" x="677.33" y="-33.74" fill="url(&quot;#SvgjsPattern25465&quot;)" transform="rotate(220.5, 755.33, 44.26)"></rect></g><defs><mask id="SvgjsMask25453"><rect width="1000" height="300" fill="#ffffff"></rect></mask><pattern x="0" y="0" width="6" height="6" patternUnits="userSpaceOnUse" id="SvgjsPattern25455"><path d="M3 1L3 5M1 3L5 3" stroke="#e73635" fill="none" stroke-width="1.44"></path></pattern><clipPath id="SvgjsClipPath25454"><circle r="15" cx="897" cy="19.27"></circle></clipPath><pattern x="0" y="0" width="9.22" height="9.22" patternUnits="userSpaceOnUse" id="SvgjsPattern25457"><path d="M4.61 1L4.61 8.22M1 4.61L8.22 4.61" stroke="#d3b714" fill="none" stroke-width="3.35"></path></pattern><clipPath id="SvgjsClipPath25456"><circle r="23.05" cx="952.06" cy="261.16"></circle></clipPath><pattern x="0" y="0" width="132.48" height="8.28" patternUnits="userSpaceOnUse" id="SvgjsPattern25459"><rect width="132.48" height="4.14" x="0" y="0" fill="#d3b714"></rect><rect width="132.48" height="4.14" x="0" y="4.14" fill="rgba(0, 0, 0, 0)"></rect></pattern><clipPath id="SvgjsClipPath25458"><circle r="33.12" cx="884.52" cy="197.6"></circle></clipPath><pattern x="0" y="0" width="128.4" height="12.84" patternUnits="userSpaceOnUse" id="SvgjsPattern25461"><rect width="128.4" height="6.42" x="0" y="0" fill="#e73635"></rect><rect width="128.4" height="6.42" x="0" y="6.42" fill="rgba(0, 0, 0, 0)"></rect></pattern><clipPath id="SvgjsClipPath25460"><circle r="32.1" cx="241.46" cy="102.7"></circle></clipPath><pattern x="0" y="0" width="60" height="6" patternUnits="userSpaceOnUse" id="SvgjsPattern25463"><rect width="60" height="3" x="0" y="0" fill="#d3b714"></rect><rect width="60" height="3" x="0" y="3" fill="rgba(0, 0, 0, 0)"></rect></pattern><clipPath id="SvgjsClipPath25462"><circle r="15" cx="547.77" cy="97.78"></circle></clipPath><pattern x="0" y="0" width="6" height="6" patternUnits="userSpaceOnUse" id="SvgjsPattern25465"><path d="M3 1L3 5M1 3L5 3" stroke="#d3b714" fill="none" stroke-width="1"></path></pattern><clipPath id="SvgjsClipPath25464"><circle r="39" cx="755.33" cy="44.26"></circle></clipPath></defs></svg>