<svg fill="none" height="21" viewBox="0 0 27 21" width="27" xmlns="http://www.w3.org/2000/svg"><path d="m11.96 15.32c0 1.5467-.5067 2.8-1.52 3.76-1.01332.9067-2.29332 1.36-3.83999 1.36-1.86666 0-3.41333-.6133-4.64-1.84-1.173331-1.2267-1.759998-2.9867-1.759998-5.28 0-2.4533.693333-4.85333 2.079998-7.19999 1.44-2.40001 3.44-4.29334 6-5.680008l1.83999 2.799998c-1.38665.96-2.50665 2.02667-3.35999 3.20001-.8 1.17333-1.33333 2.53333-1.6 4.07999.48-.2133 1.04-.32 1.68-.32 1.49334 0 2.72.48 3.67999 1.44.96.96 1.44 2.1867 1.44 3.68zm14.72 0c0 1.5467-.5067 2.8-1.52 3.76-1.0133.9067-2.2933 1.36-3.84 1.36-1.8667 0-3.4133-.6133-4.64-1.84-1.1733-1.2267-1.76-2.9867-1.76-5.28 0-2.4533.6933-4.85333 2.08-7.19999 1.44-2.40001 3.44-4.29334 6-5.680008l1.84 2.799998c-1.3867.96-2.5067 2.02667-3.36 3.20001-.8 1.17333-1.3333 2.53333-1.6 4.07999.48-.2133 1.04-.32 1.68-.32 1.4933 0 2.72.48 3.68 1.44s1.44 2.1867 1.44 3.68z" fill="#000"/></svg>